{
	"asset":{
		"generator":"Khronos glTF Blender I/O v3.6.28",
		"version":"2.0"
	},
	"scene":0,
	"scenes":[
		{
			"name":"Scene",
			"nodes":[
				0,
				1,
				2,
				3,
				4
			]
		}
	],
	"nodes":[
		{
			"mesh":0,
			"name":"Head",
			"scale":[
				1,
				0.9468127489089966,
				1.1329023838043213
			],
			"translation":[
				0,
				2.239814519882202,
				0
			]
		},
		{
			"mesh":1,
			"name":"body",
			"translation":[
				0,
				0.35772642493247986,
				0.35143303871154785
			]
		},
		{
			"mesh":2,
			"name":"Cube.006",
			"scale":[
				0.902849018573761,
				0.902849018573761,
				1.022839903831482
			],
			"translation":[
				0,
				2.239814519882202,
				0.14207622408866882
			]
		},
		{
			"mesh":3,
			"name":"Plane.002",
			"rotation":[
				0.7071068286895752,
				0,
				0,
				0.7071068286895752
			],
			"scale":[
				0.23714011907577515,
				0.23714011907577515,
				0.23714011907577515
			],
			"translation":[
				0.4946748614311218,
				2.072033166885376,
				1.3123186826705933
			]
		},
		{
			"mesh":4,
			"name":"glass",
			"scale":[
				0.7410781979560852,
				0.7410781979560852,
				0.8395693898200989
			],
			"translation":[
				0,
				2.239814519882202,
				0.14207622408866882
			]
		}
	],
	"meshes":[
		{
			"name":"Cube.002",
			"primitives":[
				{
					"attributes":{
						"COLOR_0":0,
						"POSITION":1,
						"NORMAL":2,
						"TEXCOORD_0":3
					},
					"indices":4
				}
			]
		},
		{
			"name":"Cube.007",
			"primitives":[
				{
					"attributes":{
						"COLOR_0":5,
						"POSITION":6,
						"NORMAL":7,
						"TEXCOORD_0":8
					},
					"indices":9
				}
			]
		},
		{
			"name":"Cube.011",
			"primitives":[
				{
					"attributes":{
						"COLOR_0":10,
						"POSITION":11,
						"NORMAL":12,
						"TEXCOORD_0":13
					},
					"indices":14
				}
			]
		},
		{
			"name":"Plane.002",
			"primitives":[
				{
					"attributes":{
						"COLOR_0":15,
						"POSITION":16,
						"NORMAL":17,
						"TEXCOORD_0":18
					},
					"indices":19
				}
			]
		},
		{
			"name":"Cube.015",
			"primitives":[
				{
					"attributes":{
						"COLOR_0":20,
						"POSITION":21,
						"NORMAL":22,
						"TEXCOORD_0":23
					},
					"indices":14
				}
			]
		}
	],
	"accessors":[
		{
			"bufferView":0,
			"componentType":5123,
			"count":4704,
			"normalized":true,
			"type":"VEC4"
		},
		{
			"bufferView":1,
			"componentType":5126,
			"count":4704,
			"max":[
				1.7108230590820312,
				1.253406286239624,
				1.4323385953903198
			],
			"min":[
				-1.7108232975006104,
				-1.2901830673217773,
				-0.8559931516647339
			],
			"type":"VEC3"
		},
		{
			"bufferView":2,
			"componentType":5126,
			"count":4704,
			"type":"VEC3"
		},
		{
			"bufferView":3,
			"componentType":5126,
			"count":4704,
			"type":"VEC2"
		},
		{
			"bufferView":4,
			"componentType":5123,
			"count":23256,
			"type":"SCALAR"
		},
		{
			"bufferView":5,
			"componentType":5123,
			"count":1665,
			"normalized":true,
			"type":"VEC4"
		},
		{
			"bufferView":6,
			"componentType":5126,
			"count":1665,
			"max":[
				1.933122158050537,
				0.9835729598999023,
				1.2725136280059814
			],
			"min":[
				-1.933122158050537,
				-1.1284186840057373,
				-1.1890411376953125
			],
			"type":"VEC3"
		},
		{
			"bufferView":7,
			"componentType":5126,
			"count":1665,
			"type":"VEC3"
		},
		{
			"bufferView":8,
			"componentType":5126,
			"count":1665,
			"type":"VEC2"
		},
		{
			"bufferView":9,
			"componentType":5123,
			"count":7968,
			"type":"SCALAR"
		},
		{
			"bufferView":10,
			"componentType":5123,
			"count":54,
			"normalized":true,
			"type":"VEC4"
		},
		{
			"bufferView":11,
			"componentType":5126,
			"count":54,
			"max":[
				1.1962577104568481,
				0.7763444185256958,
				1.3727984428405762
			],
			"min":[
				-1.1962577104568481,
				-0.7423168420791626,
				0.7751758098602295
			],
			"type":"VEC3"
		},
		{
			"bufferView":12,
			"componentType":5126,
			"count":54,
			"type":"VEC3"
		},
		{
			"bufferView":13,
			"componentType":5126,
			"count":54,
			"type":"VEC2"
		},
		{
			"bufferView":14,
			"componentType":5123,
			"count":240,
			"type":"SCALAR"
		},
		{
			"bufferView":15,
			"componentType":5123,
			"count":776,
			"normalized":true,
			"type":"VEC4"
		},
		{
			"bufferView":16,
			"componentType":5126,
			"count":776,
			"max":[
				1.086316704750061,
				0.357071191072464,
				0.05723698064684868
			],
			"min":[
				-5.258321285247803,
				-5.232441822045075e-07,
				-0.8901270627975464
			],
			"type":"VEC3"
		},
		{
			"bufferView":17,
			"componentType":5126,
			"count":776,
			"type":"VEC3"
		},
		{
			"bufferView":18,
			"componentType":5126,
			"count":776,
			"type":"VEC2"
		},
		{
			"bufferView":19,
			"componentType":5123,
			"count":3240,
			"type":"SCALAR"
		},
		{
			"bufferView":20,
			"componentType":5123,
			"count":54,
			"normalized":true,
			"type":"VEC4"
		},
		{
			"bufferView":21,
			"componentType":5126,
			"count":54,
			"max":[
				1.476477861404419,
				0.776344358921051,
				1.1632455587387085
			],
			"min":[
				-1.476477861404419,
				-1.0808563232421875,
				1.1632455587387085
			],
			"type":"VEC3"
		},
		{
			"bufferView":22,
			"componentType":5126,
			"count":54,
			"type":"VEC3"
		},
		{
			"bufferView":23,
			"componentType":5126,
			"count":54,
			"type":"VEC2"
		}
	],
	"bufferViews":[
		{
			"buffer":0,
			"byteLength":37632,
			"byteOffset":0,
			"target":34962
		},
		{
			"buffer":0,
			"byteLength":56448,
			"byteOffset":37632,
			"target":34962
		},
		{
			"buffer":0,
			"byteLength":56448,
			"byteOffset":94080,
			"target":34962
		},
		{
			"buffer":0,
			"byteLength":37632,
			"byteOffset":150528,
			"target":34962
		},
		{
			"buffer":0,
			"byteLength":46512,
			"byteOffset":188160,
			"target":34963
		},
		{
			"buffer":0,
			"byteLength":13320,
			"byteOffset":234672,
			"target":34962
		},
		{
			"buffer":0,
			"byteLength":19980,
			"byteOffset":247992,
			"target":34962
		},
		{
			"buffer":0,
			"byteLength":19980,
			"byteOffset":267972,
			"target":34962
		},
		{
			"buffer":0,
			"byteLength":13320,
			"byteOffset":287952,
			"target":34962
		},
		{
			"buffer":0,
			"byteLength":15936,
			"byteOffset":301272,
			"target":34963
		},
		{
			"buffer":0,
			"byteLength":432,
			"byteOffset":317208,
			"target":34962
		},
		{
			"buffer":0,
			"byteLength":648,
			"byteOffset":317640,
			"target":34962
		},
		{
			"buffer":0,
			"byteLength":648,
			"byteOffset":318288,
			"target":34962
		},
		{
			"buffer":0,
			"byteLength":432,
			"byteOffset":318936,
			"target":34962
		},
		{
			"buffer":0,
			"byteLength":480,
			"byteOffset":319368,
			"target":34963
		},
		{
			"buffer":0,
			"byteLength":6208,
			"byteOffset":319848,
			"target":34962
		},
		{
			"buffer":0,
			"byteLength":9312,
			"byteOffset":326056,
			"target":34962
		},
		{
			"buffer":0,
			"byteLength":9312,
			"byteOffset":335368,
			"target":34962
		},
		{
			"buffer":0,
			"byteLength":6208,
			"byteOffset":344680,
			"target":34962
		},
		{
			"buffer":0,
			"byteLength":6480,
			"byteOffset":350888,
			"target":34963
		},
		{
			"buffer":0,
			"byteLength":432,
			"byteOffset":357368,
			"target":34962
		},
		{
			"buffer":0,
			"byteLength":648,
			"byteOffset":357800,
			"target":34962
		},
		{
			"buffer":0,
			"byteLength":648,
			"byteOffset":358448,
			"target":34962
		},
		{
			"buffer":0,
			"byteLength":432,
			"byteOffset":359096,
			"target":34962
		}
	],
	"buffers":[
		{
			"byteLength":359528,
			"uri":"data:application/octet-stream;base64,"
		}
	]
}
